<svg xmlns:svg="http://www.w3.org/2000/svg" xmlns="http://www.w3.org/2000/svg" version="1.1" viewBox="0 0 32 32" width="32" height="32">
<g style="fill:#ff0028">
<path style="fill:#ff0028" d="M0,0V32H32V0ZM11.7,28l-.2-4.9H9.6L9.3,28H7.5L9.4,4H12l1.5,24Zm7.2,0H15.2V4H17V26.4h1.9ZM25,12.7H23.3v-6c0-1.1-.2-1.3-.7-1.3h-.7v5.8a.75.75,0,0,0,.1.5l2.2,5.6a8.82,8.82,0,0,1,.8,4.1v5.1c0,1-.2,1.5-1.3,1.5H21.6c-1.4,0-1.6-1.2-1.6-2.6V19h1.7v6c0,1,.2,1.4.6,1.4h.8V20.1a3,3,0,0,0-.2-1L20.5,13A8.61,8.61,0,0,1,20,9.6V5.5c0-.8.3-1.5,1.3-1.5h2c1.2,0,1.7.7,1.7,2.5Z" />
<polygon style="fill:#ff0028" points="10.7 5 10.6 5 10.5 9.4 9.71 21.5 11.4 21.5 11 9.4 10.7 5" />
</g>
</svg>
