<svg width="57" height="56" viewBox="0 0 57 56" fill="none" xmlns="http://www.w3.org/2000/svg">
<path fill-rule="evenodd" clip-rule="evenodd" d="M28.4979 0C12.7617 0 0 12.8532 0 28.7095C0 41.3917 8.16545 52.1529 19.4908 55.9509C20.9168 56.2136 21.4364 55.327 21.4364 54.5656C21.4364 53.8835 21.4116 52.0789 21.3967 49.6838C13.4692 51.418 11.7965 45.8347 11.7965 45.8347C10.5001 42.5179 8.6315 41.6349 8.6315 41.6349C6.0438 39.8549 8.82736 39.8901 8.82736 39.8901C11.688 40.093 13.1927 42.8492 13.1927 42.8492C15.7349 47.2358 19.864 45.9686 21.4877 45.2337C21.7466 43.3797 22.4833 42.1143 23.2968 41.397C16.9684 40.6709 10.3146 38.2088 10.3146 27.2079C10.3146 24.0726 11.4256 21.5118 13.2487 19.5045C12.9546 18.7783 11.9767 15.8598 13.5284 11.9067C13.5284 11.9067 15.9202 11.1348 21.365 14.8482C23.6378 14.212 26.0768 13.8948 28.5 13.8824C30.9215 13.8924 33.3587 14.2121 35.635 14.8482C41.0763 11.1348 43.4645 11.9067 43.4645 11.9067C45.02 15.8598 44.042 18.7783 43.7498 19.5045C45.5764 21.5118 46.6786 24.0726 46.6786 27.2079C46.6786 38.237 40.0143 40.6638 33.6666 41.3741C34.6884 42.2606 35.6 44.0124 35.6 46.6912C35.6 50.528 35.5653 53.6245 35.5653 54.5656C35.5653 55.334 36.0796 56.2276 37.5248 55.9473C48.8414 52.1423 57 41.3899 57 28.7095C57 12.8532 44.2382 0 28.4967 0" fill="#1B1817"/>
</svg>
