<svg width="160" height="160" viewBox="0 0 160 160" xmlns="http://www.w3.org/2000/svg">
<rect width="160" height="160" fill="#333" />
<path d="M45.695 94.68C46.8283 95.36 47.395 96.1817 47.395 97.145C47.395 97.655 47.225 98.2217 46.885 98.845C46.205 99.9783 45.3833 100.545 44.42 100.545C43.91 100.545 43.315 100.375 42.635 100.035L18.665 86.605C17.2483 85.755 16.54 84.5367 16.54 82.95C16.54 81.6467 17.2483 80.57 18.665 79.72L42.635 66.375C43.2583 66.035 43.825 65.865 44.335 65.865C45.355 65.865 46.205 66.4317 46.885 67.565C47.225 68.1317 47.395 68.6983 47.395 69.265C47.395 70.285 46.8 71.135 45.61 71.815L25.125 83.12L45.695 94.68ZM78.0269 96.89C75.6469 96.89 74.4569 95.7 74.4569 93.32C74.4569 90.5433 74.9385 88.2483 75.9019 86.435C76.8652 84.565 77.9419 83.1483 79.1319 82.185C80.3785 81.2217 81.9085 80.23 83.7219 79.21C85.3085 78.3033 86.4419 77.5667 87.1219 77C87.8585 76.4333 88.4252 75.6967 88.8219 74.79C89.2752 73.8833 89.5019 72.665 89.5019 71.135C89.5019 68.8683 89.2469 67.14 88.7369 65.95C88.2269 64.7033 87.3485 63.825 86.1019 63.315C84.9119 62.805 83.1835 62.55 80.9169 62.55H75.2219C72.9552 62.55 71.1985 62.805 69.9519 63.315C68.7619 63.825 67.9119 64.7033 67.4019 65.95C66.8919 67.14 66.6369 68.8683 66.6369 71.135C66.6369 73.515 65.4469 74.705 63.0669 74.705C60.6869 74.705 59.4969 73.515 59.4969 71.135C59.4969 60.6517 64.7385 55.41 75.2219 55.41H80.9169C86.2435 55.41 90.1819 56.7133 92.7319 59.32C95.3385 61.87 96.6419 65.8083 96.6419 71.135C96.6419 73.9117 96.1602 76.235 95.1969 78.105C94.2335 79.9183 93.1285 81.3067 91.8819 82.27C90.6919 83.2333 89.1902 84.225 87.3769 85.245C85.7902 86.1517 84.6285 86.8883 83.8919 87.455C83.2119 88.0217 82.6452 88.7583 82.1919 89.665C81.7952 90.5717 81.5969 91.79 81.5969 93.32C81.5969 95.7 80.4069 96.89 78.0269 96.89ZM77.0069 111C75.9302 111 75.0802 110.717 74.4569 110.15C73.8902 109.527 73.6069 108.677 73.6069 107.6V105.475C73.6069 104.398 73.8902 103.577 74.4569 103.01C75.0802 102.443 75.9302 102.16 77.0069 102.16H79.0469C81.2002 102.16 82.2769 103.265 82.2769 105.475V107.6C82.2769 108.677 81.9935 109.527 81.4269 110.15C80.9169 110.717 80.1235 111 79.0469 111H77.0069ZM140.225 79.72C141.642 80.57 142.35 81.6467 142.35 82.95C142.35 84.5367 141.642 85.755 140.225 86.605L116.255 100.035C115.575 100.375 114.98 100.545 114.47 100.545C113.507 100.545 112.685 99.9783 112.005 98.845C111.665 98.2217 111.495 97.655 111.495 97.145C111.495 96.1817 112.062 95.36 113.195 94.68L133.765 83.12L113.28 71.815C112.09 71.135 111.495 70.285 111.495 69.265C111.495 68.6983 111.665 68.1317 112.005 67.565C112.685 66.4317 113.535 65.865 114.555 65.865C115.065 65.865 115.632 66.035 116.255 66.375L140.225 79.72Z" fill="white"/>
</svg>
