<?xml version="1.0" standalone="no"?>
<!DOCTYPE svg PUBLIC "-//W3C//DTD SVG 20010904//EN"
 "http://www.w3.org/TR/2001/REC-SVG-20010904/DTD/svg10.dtd">
<svg version="1.0" xmlns="http://www.w3.org/2000/svg"
 width="700.000000pt" height="700.000000pt" viewBox="0 0 700.000000 700.000000"
 preserveAspectRatio="xMidYMid meet">
<metadata>
Created by potrace 1.11, written by Peter Selinger 2001-2013
</metadata>
<g transform="translate(0.000000,700.000000) scale(0.100000,-0.100000)"
fill="#000000" stroke="none">
<path d="M0 3500 l0 -3500 3500 0 3500 0 0 3500 0 3500 -3500 0 -3500 0 0
-3500z m3785 1051 c119 -32 199 -75 271 -146 108 -109 160 -249 171 -460 12
-250 -61 -432 -225 -558 -32 -25 -115 -79 -183 -121 -137 -82 -164 -104 -202
-162 -26 -38 -47 -131 -47 -204 0 -81 -64 -140 -153 -140 -64 0 -112 22 -137
62 -19 30 -21 44 -17 148 5 125 26 200 82 296 59 101 116 147 377 308 92 56
151 120 174 188 25 75 16 274 -15 343 -61 137 -140 160 -515 152 -256 -5 -295
-12 -354 -63 -59 -50 -81 -113 -91 -256 -10 -133 -20 -159 -82 -191 -45 -24
-138 -19 -177 9 -53 39 -64 77 -58 194 19 366 201 573 546 620 36 5 175 7 310
6 212 -3 256 -6 325 -25z m-1787 -451 c45 -27 72 -76 72 -129 0 -37 -5 -49
-37 -80 -24 -23 -207 -130 -482 -281 -381 -209 -441 -245 -426 -256 9 -7 214
-123 455 -259 275 -154 449 -257 465 -276 45 -55 30 -138 -37 -194 -59 -50
-63 -48 -659 286 -304 170 -557 317 -575 336 -38 38 -59 101 -49 151 13 69 55
97 605 403 289 161 539 298 555 305 42 19 75 17 113 -6z m3598 -285 c580 -323
616 -346 630 -420 10 -53 -12 -114 -55 -154 -45 -42 -1093 -629 -1138 -637
-74 -14 -142 47 -151 136 -4 49 -3 52 35 88 23 20 235 146 477 281 240 134
439 247 441 251 3 5 -196 119 -443 254 -288 159 -459 259 -479 281 -25 27 -33
44 -33 73 0 76 68 152 135 152 23 0 181 -83 581 -305z m-2062 -1300 c50 -24
60 -49 64 -165 4 -122 -11 -163 -69 -192 -48 -25 -179 -24 -235 1 -58 26 -74
66 -74 181 0 155 35 190 188 190 63 0 104 -5 126 -15z"/>
</g>
</svg>
