<svg xmlns="http://www.w3.org/2000/svg" xmlns:xlink="http://www.w3.org/1999/xlink" viewBox="0 0 71.35 37.82" width="71.35" height="37.82"><defs><style>.cls-1{fill:#29abe2;}.cls-2{fill:url(#Summer_Multicolor);}.cls-3{fill:#072849;}</style><linearGradient id="Summer_Multicolor" x1="42.01" y1="18.91" x2="71.35" y2="18.91" gradientUnits="userSpaceOnUse"><stop offset="0.11" stop-color="#f4cb29"/><stop offset="0.24" stop-color="#e94a31"/><stop offset="0.27" stop-color="#e04848"/><stop offset="0.32" stop-color="#d24470"/><stop offset="0.37" stop-color="#c94288"/><stop offset="0.39" stop-color="#c64191"/><stop offset="0.79" stop-color="#00a9bc"/><stop offset="0.81" stop-color="#03a85f"/><stop offset="1" stop-color="#00a9bc"/></linearGradient></defs><title>logo-sign</title><g id="Слой_2" data-name="Слой 2"><g id="Layer_1" data-name="Layer 1"><polygon class="cls-1" points="6.69 0 0 0 1.28 5.79 7.98 5.79 6.69 0"/><polygon class="cls-2" points="64.23 0 58.86 24.14 52.02 0 46.03 0 42.01 14.34 44.97 27.65 48.96 13.37 55.93 37.81 62.84 37.81 71.35 0 64.23 0"/><path class="cls-3" d="M37.81,10.72v-.4A10.35,10.35,0,0,0,27.49,0H10.9l1.28,5.79h15.3A4.54,4.54,0,0,1,32,10.32v.4a4.54,4.54,0,0,1-4.53,4.53H14.29L15.57,21H27.49A4.54,4.54,0,0,1,32,25.58V26a4.54,4.54,0,0,1-4.53,4.53H17.67L19,36.3h8.53A10.35,10.35,0,0,0,37.81,26v-.4a10.29,10.29,0,0,0-3.18-7.43A10.29,10.29,0,0,0,37.81,10.72Z"/></g></g></svg>