<svg viewBox="0 0 24 30" width="48" height="60" xmlns="http://www.w3.org/2000/svg">
<path fill="#000000" fill-rule="evenodd" d="M62.311,47.495c0.076,0.089,1.187,1.3,1.463,1.7a2.788,2.788,0,0,1-.316,1.917l0.067,0.043,0.316,0.205-1.578,2.381L61.69,51.106a1.016,1.016,0,0,1-.45-0.214,2.1,2.1,0,0,1-.534-2.668,5.916,5.916,0,0,1,.372-0.571,0.751,0.751,0,0,1,1.234-.158M48.933,64.74c0.076,0.016.21,0.039,0.21,0.039l0.133,0.375s0.04,0,.068.01c2.191,0.435,4.667.325,5.146-.04a10.7,10.7,0,0,0,2.706-4.34,7.715,7.715,0,0,1,4-1.164C62.475,59.767,63,60.958,63,62.706c0.085,0,.556.051,0.556,0.051s-0.04.189-.048,0.278a4.013,4.013,0,0,0-.182.4,2.4,2.4,0,0,0,1.117,1.754A11.761,11.761,0,0,0,68.986,62.3l-0.879-.8a5.272,5.272,0,0,1-2.428,1.17s0.678-5.431-.058-6.155a4.642,4.642,0,0,0-3.327-1.189l0.839,2.464-9.706,2.5s-0.547-1.51-.707-2.018A8.061,8.061,0,0,1,51.6,61.89a3.189,3.189,0,0,1-3.212.782l-0.863-.225a14.812,14.812,0,0,0-.993,1.688,2.8,2.8,0,0,0,1.119,3.874H66.463c-3.185-1.785-13.074-1.805-17.808-.621a3.768,3.768,0,0,1,.278-2.647m9.706-16.821A5.786,5.786,0,0,0,53.667,46.5L53.16,46a2.049,2.049,0,0,0,.688-0.45,12.571,12.571,0,0,1-1.166-4.517,3.726,3.726,0,0,0,3.337-3.041s-1.625,1.174-2.888.5a2.876,2.876,0,0,0-3.625.949s-1.442.07-1.405,0.984a12.263,12.263,0,0,0,2.565,7.035,8.082,8.082,0,0,0-3.845,3.221A16.434,16.434,0,0,0,45,55.042a8.6,8.6,0,0,0,5.7,2.613,2.487,2.487,0,0,1,.306-0.6,5.933,5.933,0,0,0,2.525-.606c0.01-.005.86-1.583,0.066-2.194-0.239-.213-0.6-0.133-1.778-0.085a3.789,3.789,0,0,1-1.6-.144l0.956-.746-0.8-3.344,8.245-2Z" transform="translate(-45 -38)"></path>
</svg>